<svg width="30" height="30" viewBox="0 0 30 30" fill="none" xmlns="http://www.w3.org/2000/svg">
<path d="M28.9773 11H23.1818V6C23.1818 4.4087 22.3198 2.88258 20.7854 1.75736C19.251 0.632141 17.17 0 15 0C12.83 0 10.749 0.632141 9.21458 1.75736C7.68019 2.88258 6.81818 4.4087 6.81818 6V11H1.02273C0.751483 11 0.491348 11.079 0.29955 11.2197C0.107751 11.3603 0 11.5511 0 11.75V29.25C0 29.4489 0.107751 29.6397 0.29955 29.7803C0.491348 29.921 0.751483 30 1.02273 30H28.9773C29.2485 30 29.5087 29.921 29.7005 29.7803C29.8923 29.6397 30 29.4489 30 29.25V11.75C30 11.5511 29.8923 11.3603 29.7005 11.2197C29.5087 11.079 29.2485 11 28.9773 11ZM19.9432 11H10.0568V5.95312C10.0568 4.99172 10.5776 4.06968 11.5046 3.38986C12.4317 2.71004 13.689 2.32812 15 2.32812C16.311 2.32812 17.5683 2.71004 18.4954 3.38986C19.4224 4.06968 19.9432 4.99172 19.9432 5.95312V11Z" fill="black"/>
</svg>
